<?xml version="1.0" standalone="no"?>
<!DOCTYPE svg PUBLIC "-//W3C//DTD SVG 20010904//EN"
 "http://www.w3.org/TR/2001/REC-SVG-20010904/DTD/svg10.dtd">
<svg version="1.0" xmlns="http://www.w3.org/2000/svg"
 width="250.000000pt" height="225.000000pt" viewBox="0 0 250.000000 225.000000"
 preserveAspectRatio="xMidYMid meet">

<g transform="translate(0.000000,225.000000) scale(0.100000,-0.100000)"
fill="#000000" stroke="none">
<path d="M463 2225 c-180 -49 -321 -191 -368 -372 -13 -48 -15 -167 -15 -733
0 -626 1 -682 19 -747 45 -173 182 -316 345 -359 74 -20 1437 -20 1511 0 161
43 292 170 353 345 14 40 17 132 20 716 4 739 2 764 -54 881 -61 127 -199 238
-334 268 -97 22 -1395 23 -1477 1z m1325 -246 c111 -37 206 -147 226 -261 8
-42 -11 -68 -48 -68 -31 0 -43 16 -62 80 -30 100 -152 183 -249 167 -41 -7
-75 15 -75 48 0 56 96 72 208 34z m-460 -217 c31 -23 166 -118 298 -212 216
-152 244 -175 263 -215 20 -43 21 -59 21 -427 0 -429 -1 -436 -70 -471 -32
-16 -79 -17 -642 -15 -596 3 -607 3 -635 24 -62 45 -63 51 -63 462 0 464 -9
435 163 555 48 34 165 118 260 186 95 68 190 132 212 142 62 30 122 21 193
-29z m424 19 c33 -21 53 -44 72 -83 29 -60 26 -95 -9 -104 -39 -10 -58 0 -70
35 -16 49 -58 81 -105 81 -31 0 -43 5 -56 25 -15 23 -15 27 0 50 14 21 24 25
69 25 41 0 63 -6 99 -29z"/>
<path d="M947 1458 l-257 -181 0 -338 0 -338 36 -7 c35 -6 985 4 992 11 7 7
13 621 7 647 -6 22 -56 62 -228 185 -122 87 -238 168 -258 180 l-36 22 -256
-181z"/>
</g>
</svg>
